<svg version="1.1" xmlns="http://www.w3.org/2000/svg" width="800" height="500"><defs><clipPath id="zKfAvAagmIpd"><path fill="none" stroke="none" d="M 0.5 0.5 L 800.5 0.5 L 800.5 500.5 L 0.5 500.5 L 0.5 0.5 Z M 58.5 27.5 L 770.5 27.5 L 770.5 455.5 L 58.5 455.5 L 58.5 27.5 Z" clip-rule="evenodd"/></clipPath><clipPath id="mfHEDqzaAtay"><path fill="none" stroke="none" d="M 58.5 27.5 L 770.5 27.5 L 770.5 455.5 L 58.5 455.5 L 58.5 27.5 Z"/></clipPath><clipPath id="XpTMWkfuxrXG"><path fill="none" stroke="none" d="M 58.5 27.5 L 770.5 27.5 L 770.5 455.5 L 58.5 455.5 L 58.5 27.5 Z"/></clipPath><clipPath id="UuEaAXRwCBST"><path fill="none" stroke="none" d="M 58.5 27.5 L 770.5 27.5 L 770.5 455.5 L 58.5 455.5 L 58.5 27.5 Z"/></clipPath><clipPath id="iWzCCThobfiL"><path fill="none" stroke="none" d="M 58.5 27.5 L 770.5 27.5 L 770.5 455.5 L 58.5 455.5 L 58.5 27.5 Z"/></clipPath><clipPath id="kaLzssRBaKqm"><path fill="none" stroke="none" d="M 58.5 27.5 L 770.5 27.5 L 770.5 455.5 L 58.5 455.5 L 58.5 27.5 Z"/></clipPath><clipPath id="axUPavvglqWZ"><path fill="none" stroke="none" d="M 58.5 27.5 L 770.5 27.5 L 770.5 455.5 L 58.5 455.5 L 58.5 27.5 Z"/></clipPath></defs><path fill="#ffffff" stroke="none" paint-order="stroke" d="M 0.5 0.5 L 800.5 0.5 L 800.5 500.5 L 0.5 500.5 L 0.5 0.5 Z" fill-rule="nonzero" clip-path="url(#zKfAvAagmIpd)"/><path fill="#ffffff" stroke="none" paint-order="stroke" d="M 58.5 27.5 L 770.5 27.5 L 770.5 455.5 L 58.5 455.5 L 58.5 27.5 Z"/><path fill="none" stroke="#e5e5e5" paint-order="fill" d="M 58.5 27.5 L 770.5 27.5 L 770.5 455.5 L 58.5 455.5 L 58.5 27.5 Z" stroke-linejoin="bevel" stroke-miterlimit="10"/><path fill="none" stroke="#e5e5e5" paint-order="fill" d="M 131.5 455.5 L 131.5 27.5 M 255.5 455.5 L 255.5 27.5 M 378.5 455.5 L 378.5 27.5 M 502.5 455.5 L 502.5 27.5 M 626.5 455.5 L 626.5 27.5 M 749.5 455.5 L 749.5 27.5" stroke-linejoin="bevel" stroke-miterlimit="10" clip-path="url(#mfHEDqzaAtay)"/><path fill="none" stroke="#e5e5e5" paint-order="fill" d="M 58.5 443.5 L 770.5 443.5 M 58.5 388.5 L 770.5 388.5 M 58.5 334.5 L 770.5 334.5 M 58.5 279.5 L 770.5 279.5 M 58.5 224.5 L 770.5 224.5 M 58.5 170.5 L 770.5 170.5 M 58.5 115.5 L 770.5 115.5 M 58.5 60.5 L 770.5 60.5" stroke-linejoin="bevel" stroke-miterlimit="10" clip-path="url(#XpTMWkfuxrXG)"/><path fill="rgb(0 255 255)" stroke="rgb(0 0 0)" paint-order="fill" d="M 209.6702423095703 129.3713836669922 L 214.33690897623697 122.37138366699219 L 209.6702423095703 115.37138366699219 L 205.00357564290366 122.37138366699219 Z" fill-rule="nonzero" clip-path="url(#UuEaAXRwCBST)" stroke-linejoin="bevel" stroke-miterlimit="10"/><path fill="rgb(0 255 255)" stroke="rgb(0 0 0)" paint-order="fill" d="M 516.0704345703125 443.0454406738281 L 520.7371012369791 436.0454406738281 L 516.0704345703125 429.0454406738281 L 511.4037679036458 436.0454406738281 Z" fill-rule="nonzero" clip-path="url(#UuEaAXRwCBST)" stroke-linejoin="bevel" stroke-miterlimit="10"/><path fill="rgb(0 255 255)" stroke="rgb(0 0 0)" paint-order="fill" d="M 307.7622985839844 70.72834777832031 L 312.42896525065106 63.72834777832031 L 307.7622985839844 56.72834777832031 L 303.0956319173177 63.72834777832031 Z" fill-rule="nonzero" clip-path="url(#UuEaAXRwCBST)" stroke-linejoin="bevel" stroke-miterlimit="10"/><path fill="rgb(0 255 255)" stroke="rgb(0 0 0)" paint-order="fill" d="M 528.5123291015625 329.880859375 L 533.1789957682291 322.880859375 L 528.5123291015625 315.880859375 L 523.8456624348959 322.880859375 Z" fill-rule="nonzero" clip-path="url(#UuEaAXRwCBST)" stroke-linejoin="bevel" stroke-miterlimit="10"/><path fill="rgb(0 255 255)" stroke="rgb(0 0 0)" paint-order="fill" d="M 738.1363525390625 277.7433776855469 L 742.8030192057291 270.7433776855469 L 738.1363525390625 263.7433776855469 L 733.4696858723959 270.7433776855469 Z" fill-rule="nonzero" clip-path="url(#UuEaAXRwCBST)" stroke-linejoin="bevel" stroke-miterlimit="10"/><path fill="rgb(0 255 255)" stroke="rgb(0 0 0)" paint-order="fill" d="M 501.2494201660156 239.2114715576172 L 505.9160868326823 232.2114715576172 L 501.2494201660156 225.2114715576172 L 496.58275349934894 232.2114715576172 Z" fill-rule="nonzero" clip-path="url(#UuEaAXRwCBST)" stroke-linejoin="bevel" stroke-miterlimit="10"/><path fill="rgb(0 255 255)" stroke="rgb(0 0 0)" paint-order="fill" d="M 90.86363983154297 53.95454406738281 L 95.53030649820964 46.95454406738281 L 90.86363983154297 39.95454406738281 L 86.1969731648763 46.95454406738281 Z" fill-rule="nonzero" clip-path="url(#UuEaAXRwCBST)" stroke-linejoin="bevel" stroke-miterlimit="10"/><path fill="rgb(0 255 255)" stroke="rgb(0 0 0)" paint-order="fill" d="M 418.0252685546875 128.52002716064453 L 422.6919352213542 121.52002716064453 L 418.0252685546875 114.52002716064453 L 413.3586018880208 121.52002716064453 Z" fill-rule="nonzero" clip-path="url(#UuEaAXRwCBST)" stroke-linejoin="bevel" stroke-miterlimit="10"/><path fill="none" stroke="black" paint-order="fill" d="M 58.5 455.5 L 770.5 455.5" stroke-linejoin="bevel" stroke-miterlimit="10"/><path fill="none" stroke="black" paint-order="fill" d="M 131.5 461.5 L 131.5 453.5 M 255.5 461.5 L 255.5 453.5 M 378.5 461.5 L 378.5 453.5 M 502.5 461.5 L 502.5 453.5 M 626.5 461.5 L 626.5 453.5 M 749.5 461.5 L 749.5 453.5" stroke-linejoin="bevel" stroke-miterlimit="10"/><path fill="none" stroke="black" paint-order="fill" d="M 106.5 459.5 L 106.5 455.5 M 81.5 459.5 L 81.5 455.5 M 131.5 459.5 L 131.5 455.5 M 156.5 459.5 L 156.5 455.5 M 180.5 459.5 L 180.5 455.5 M 205.5 459.5 L 205.5 455.5 M 230.5 459.5 L 230.5 455.5 M 255.5 459.5 L 255.5 455.5 M 279.5 459.5 L 279.5 455.5 M 304.5 459.5 L 304.5 455.5 M 329.5 459.5 L 329.5 455.5 M 354.5 459.5 L 354.5 455.5 M 378.5 459.5 L 378.5 455.5 M 403.5 459.5 L 403.5 455.5 M 428.5 459.5 L 428.5 455.5 M 452.5 459.5 L 452.5 455.5 M 477.5 459.5 L 477.5 455.5 M 502.5 459.5 L 502.5 455.5 M 527.5 459.5 L 527.5 455.5 M 551.5 459.5 L 551.5 455.5 M 576.5 459.5 L 576.5 455.5 M 601.5 459.5 L 601.5 455.5 M 626.5 459.5 L 626.5 455.5 M 650.5 459.5 L 650.5 455.5 M 675.5 459.5 L 675.5 455.5 M 700.5 459.5 L 700.5 455.5 M 725.5 459.5 L 725.5 455.5 M 749.5 459.5 L 749.5 455.5" stroke-linejoin="bevel" stroke-miterlimit="10"/><text fill="#444444" stroke="none" font-family="helvetica" font-size="11px" font-style="normal" font-weight="normal" text-decoration="normal" x="120.25288391113281" y="474" text-anchor="start" dominant-baseline="alphabetic" transform="matrix(1, 0, 0, 1, 0.5, 0.5)">1.32</text><text fill="none" stroke="rgb(0 0 0 / 0)" font-family="helvetica" font-size="11px" font-style="normal" font-weight="normal" text-decoration="normal" x="120.25288391113281" y="474" text-anchor="start" dominant-baseline="alphabetic" transform="matrix(1, 0, 0, 1, 0.5, 0.5)" stroke-linejoin="bevel" stroke-miterlimit="10">1.32</text><text fill="#444444" stroke="none" font-family="helvetica" font-size="11px" font-style="normal" font-weight="normal" text-decoration="normal" x="243.9132080078125" y="474" text-anchor="start" dominant-baseline="alphabetic" transform="matrix(1, 0, 0, 1, 0.5, 0.5)">1.34</text><text fill="none" stroke="rgb(0 0 0 / 0)" font-family="helvetica" font-size="11px" font-style="normal" font-weight="normal" text-decoration="normal" x="243.9132080078125" y="474" text-anchor="start" dominant-baseline="alphabetic" transform="matrix(1, 0, 0, 1, 0.5, 0.5)" stroke-linejoin="bevel" stroke-miterlimit="10">1.34</text><text fill="#444444" stroke="none" font-family="helvetica" font-size="11px" font-style="normal" font-weight="normal" text-decoration="normal" x="367.57354736328125" y="474" text-anchor="start" dominant-baseline="alphabetic" transform="matrix(1, 0, 0, 1, 0.5, 0.5)">1.36</text><text fill="none" stroke="rgb(0 0 0 / 0)" font-family="helvetica" font-size="11px" font-style="normal" font-weight="normal" text-decoration="normal" x="367.57354736328125" y="474" text-anchor="start" dominant-baseline="alphabetic" transform="matrix(1, 0, 0, 1, 0.5, 0.5)" stroke-linejoin="bevel" stroke-miterlimit="10">1.36</text><text fill="#444444" stroke="none" font-family="helvetica" font-size="11px" font-style="normal" font-weight="normal" text-decoration="normal" x="491.2338562011719" y="474" text-anchor="start" dominant-baseline="alphabetic" transform="matrix(1, 0, 0, 1, 0.5, 0.5)">1.38</text><text fill="none" stroke="rgb(0 0 0 / 0)" font-family="helvetica" font-size="11px" font-style="normal" font-weight="normal" text-decoration="normal" x="491.2338562011719" y="474" text-anchor="start" dominant-baseline="alphabetic" transform="matrix(1, 0, 0, 1, 0.5, 0.5)" stroke-linejoin="bevel" stroke-miterlimit="10">1.38</text><text fill="#444444" stroke="none" font-family="helvetica" font-size="11px" font-style="normal" font-weight="normal" text-decoration="normal" x="617.9530029296875" y="474" text-anchor="start" dominant-baseline="alphabetic" transform="matrix(1, 0, 0, 1, 0.5, 0.5)">1.4</text><text fill="none" stroke="rgb(0 0 0 / 0)" font-family="helvetica" font-size="11px" font-style="normal" font-weight="normal" text-decoration="normal" x="617.9530029296875" y="474" text-anchor="start" dominant-baseline="alphabetic" transform="matrix(1, 0, 0, 1, 0.5, 0.5)" stroke-linejoin="bevel" stroke-miterlimit="10">1.4</text><text fill="#444444" stroke="none" font-family="helvetica" font-size="11px" font-style="normal" font-weight="normal" text-decoration="normal" x="738.5545043945312" y="474" text-anchor="start" dominant-baseline="alphabetic" transform="matrix(1, 0, 0, 1, 0.5, 0.5)">1.42</text><text fill="none" stroke="rgb(0 0 0 / 0)" font-family="helvetica" font-size="11px" font-style="normal" font-weight="normal" text-decoration="normal" x="738.5545043945312" y="474" text-anchor="start" dominant-baseline="alphabetic" transform="matrix(1, 0, 0, 1, 0.5, 0.5)" stroke-linejoin="bevel" stroke-miterlimit="10">1.42</text><text fill="#444444" stroke="none" font-family="helvetica" font-size="13px" font-style="italic" font-weight="normal" text-decoration="normal" x="409.66455078125" y="494" text-anchor="start" dominant-baseline="alphabetic" transform="matrix(1, 0, 0, 1, 0.5, 0.5)">P</text><text fill="none" stroke="rgb(0 0 0 / 0)" font-family="helvetica" font-size="13px" font-style="italic" font-weight="normal" text-decoration="normal" x="409.66455078125" y="494" text-anchor="start" dominant-baseline="alphabetic" transform="matrix(1, 0, 0, 1, 0.5, 0.5)" stroke-linejoin="bevel" stroke-miterlimit="10">P</text><path fill="none" stroke="black" paint-order="fill" d="M 58.5 455.5 L 58.5 27.5" stroke-linejoin="bevel" stroke-miterlimit="10"/><path fill="none" stroke="black" paint-order="fill" d="M 52.5 443.5 L 60.5 443.5 M 52.5 388.5 L 60.5 388.5 M 52.5 334.5 L 60.5 334.5 M 52.5 279.5 L 60.5 279.5 M 52.5 224.5 L 60.5 224.5 M 52.5 170.5 L 60.5 170.5 M 52.5 115.5 L 60.5 115.5 M 52.5 60.5 L 60.5 60.5" stroke-linejoin="bevel" stroke-miterlimit="10"/><path fill="none" stroke="black" paint-order="fill" d="M 54.5 454.5 L 58.5 454.5 M 54.5 443.5 L 58.5 443.5 M 54.5 432.5 L 58.5 432.5 M 54.5 421.5 L 58.5 421.5 M 54.5 410.5 L 58.5 410.5 M 54.5 399.5 L 58.5 399.5 M 54.5 388.5 L 58.5 388.5 M 54.5 377.5 L 58.5 377.5 M 54.5 366.5 L 58.5 366.5 M 54.5 355.5 L 58.5 355.5 M 54.5 344.5 L 58.5 344.5 M 54.5 334.5 L 58.5 334.5 M 54.5 323.5 L 58.5 323.5 M 54.5 312.5 L 58.5 312.5 M 54.5 301.5 L 58.5 301.5 M 54.5 290.5 L 58.5 290.5 M 54.5 279.5 L 58.5 279.5 M 54.5 268.5 L 58.5 268.5 M 54.5 257.5 L 58.5 257.5 M 54.5 246.5 L 58.5 246.5 M 54.5 235.5 L 58.5 235.5 M 54.5 224.5 L 58.5 224.5 M 54.5 213.5 L 58.5 213.5 M 54.5 202.5 L 58.5 202.5 M 54.5 191.5 L 58.5 191.5 M 54.5 181.5 L 58.5 181.5 M 54.5 170.5 L 58.5 170.5 M 54.5 159.5 L 58.5 159.5 M 54.5 148.5 L 58.5 148.5 M 54.5 137.5 L 58.5 137.5 M 54.5 126.5 L 58.5 126.5 M 54.5 115.5 L 58.5 115.5 M 54.5 104.5 L 58.5 104.5 M 54.5 93.5 L 58.5 93.5 M 54.5 82.5 L 58.5 82.5 M 54.5 71.5 L 58.5 71.5 M 54.5 60.5 L 58.5 60.5 M 54.5 49.5 L 58.5 49.5 M 54.5 38.5 L 58.5 38.5 M 54.5 28.5 L 58.5 28.5" stroke-linejoin="bevel" stroke-miterlimit="10"/><text fill="#444444" stroke="none" font-family="helvetica" font-size="11px" font-style="normal" font-weight="normal" text-decoration="normal" x="25.5908203125" y="446.7875671386719" text-anchor="start" dominant-baseline="alphabetic" transform="matrix(1, 0, 0, 1, 0.5, 0.5)">0.64</text><text fill="none" stroke="rgb(0 0 0 / 0)" font-family="helvetica" font-size="11px" font-style="normal" font-weight="normal" text-decoration="normal" x="25.5908203125" y="446.7875671386719" text-anchor="start" dominant-baseline="alphabetic" transform="matrix(1, 0, 0, 1, 0.5, 0.5)" stroke-linejoin="bevel" stroke-miterlimit="10">0.64</text><text fill="#444444" stroke="none" font-family="helvetica" font-size="11px" font-style="normal" font-weight="normal" text-decoration="normal" x="25.5908203125" y="392.1515197753906" text-anchor="start" dominant-baseline="alphabetic" transform="matrix(1, 0, 0, 1, 0.5, 0.5)">0.66</text><text fill="none" stroke="rgb(0 0 0 / 0)" font-family="helvetica" font-size="11px" font-style="normal" font-weight="normal" text-decoration="normal" x="25.5908203125" y="392.1515197753906" text-anchor="start" dominant-baseline="alphabetic" transform="matrix(1, 0, 0, 1, 0.5, 0.5)" stroke-linejoin="bevel" stroke-miterlimit="10">0.66</text><text fill="#444444" stroke="none" font-family="helvetica" font-size="11px" font-style="normal" font-weight="normal" text-decoration="normal" x="25.5908203125" y="337.5154724121094" text-anchor="start" dominant-baseline="alphabetic" transform="matrix(1, 0, 0, 1, 0.5, 0.5)">0.68</text><text fill="none" stroke="rgb(0 0 0 / 0)" font-family="helvetica" font-size="11px" font-style="normal" font-weight="normal" text-decoration="normal" x="25.5908203125" y="337.5154724121094" text-anchor="start" dominant-baseline="alphabetic" transform="matrix(1, 0, 0, 1, 0.5, 0.5)" stroke-linejoin="bevel" stroke-miterlimit="10">0.68</text><text fill="#444444" stroke="none" font-family="helvetica" font-size="11px" font-style="normal" font-weight="normal" text-decoration="normal" x="31.70849609375" y="282.87939453125" text-anchor="start" dominant-baseline="alphabetic" transform="matrix(1, 0, 0, 1, 0.5, 0.5)">0.7</text><text fill="none" stroke="rgb(0 0 0 / 0)" font-family="helvetica" font-size="11px" font-style="normal" font-weight="normal" text-decoration="normal" x="31.70849609375" y="282.87939453125" text-anchor="start" dominant-baseline="alphabetic" transform="matrix(1, 0, 0, 1, 0.5, 0.5)" stroke-linejoin="bevel" stroke-miterlimit="10">0.7</text><text fill="#444444" stroke="none" font-family="helvetica" font-size="11px" font-style="normal" font-weight="normal" text-decoration="normal" x="25.5908203125" y="228.2433319091797" text-anchor="start" dominant-baseline="alphabetic" transform="matrix(1, 0, 0, 1, 0.5, 0.5)">0.72</text><text fill="none" stroke="rgb(0 0 0 / 0)" font-family="helvetica" font-size="11px" font-style="normal" font-weight="normal" text-decoration="normal" x="25.5908203125" y="228.2433319091797" text-anchor="start" dominant-baseline="alphabetic" transform="matrix(1, 0, 0, 1, 0.5, 0.5)" stroke-linejoin="bevel" stroke-miterlimit="10">0.72</text><text fill="#444444" stroke="none" font-family="helvetica" font-size="11px" font-style="normal" font-weight="normal" text-decoration="normal" x="25.5908203125" y="173.60728454589844" text-anchor="start" dominant-baseline="alphabetic" transform="matrix(1, 0, 0, 1, 0.5, 0.5)">0.74</text><text fill="none" stroke="rgb(0 0 0 / 0)" font-family="helvetica" font-size="11px" font-style="normal" font-weight="normal" text-decoration="normal" x="25.5908203125" y="173.60728454589844" text-anchor="start" dominant-baseline="alphabetic" transform="matrix(1, 0, 0, 1, 0.5, 0.5)" stroke-linejoin="bevel" stroke-miterlimit="10">0.74</text><text fill="#444444" stroke="none" font-family="helvetica" font-size="11px" font-style="normal" font-weight="normal" text-decoration="normal" x="25.5908203125" y="118.97122192382812" text-anchor="start" dominant-baseline="alphabetic" transform="matrix(1, 0, 0, 1, 0.5, 0.5)">0.76</text><text fill="none" stroke="rgb(0 0 0 / 0)" font-family="helvetica" font-size="11px" font-style="normal" font-weight="normal" text-decoration="normal" x="25.5908203125" y="118.97122192382812" text-anchor="start" dominant-baseline="alphabetic" transform="matrix(1, 0, 0, 1, 0.5, 0.5)" stroke-linejoin="bevel" stroke-miterlimit="10">0.76</text><text fill="#444444" stroke="none" font-family="helvetica" font-size="11px" font-style="normal" font-weight="normal" text-decoration="normal" x="25.5908203125" y="64.33515930175781" text-anchor="start" dominant-baseline="alphabetic" transform="matrix(1, 0, 0, 1, 0.5, 0.5)">0.78</text><text fill="none" stroke="rgb(0 0 0 / 0)" font-family="helvetica" font-size="11px" font-style="normal" font-weight="normal" text-decoration="normal" x="25.5908203125" y="64.33515930175781" text-anchor="start" dominant-baseline="alphabetic" transform="matrix(1, 0, 0, 1, 0.5, 0.5)" stroke-linejoin="bevel" stroke-miterlimit="10">0.78</text><text fill="#444444" stroke="none" font-family="helvetica" font-size="13px" font-style="italic" font-weight="normal" text-decoration="normal" x="13.620361328125" y="238" text-anchor="start" dominant-baseline="alphabetic" transform="matrix(6.123233995736766e-17, -1, 1, 6.123233995736766e-17, -222.9091796875, 259.0908203125)">T</text><text fill="none" stroke="rgb(0 0 0 / 0)" font-family="helvetica" font-size="13px" font-style="italic" font-weight="normal" text-decoration="normal" x="13.620361328125" y="238" text-anchor="start" dominant-baseline="alphabetic" transform="matrix(6.123233995736766e-17, -1, 1, 6.123233995736766e-17, -222.9091796875, 259.0908203125)" stroke-linejoin="bevel" stroke-miterlimit="10">T</text><text fill="#444444" stroke="none" font-family="helvetica" font-size="13px" font-style="normal" font-weight="bold" text-decoration="normal" x="0" y="12" text-anchor="start" dominant-baseline="alphabetic" transform="matrix(1, 0, 0, 1, 58.5, 7.5)">P vs T</text><text fill="none" stroke="rgb(0 0 0 / 0)" font-family="helvetica" font-size="13px" font-style="normal" font-weight="bold" text-decoration="normal" x="0" y="12" text-anchor="start" dominant-baseline="alphabetic" transform="matrix(1, 0, 0, 1, 58.5, 7.5)" stroke-miterlimit="10" stroke-dasharray="">P vs T</text></svg>