<svg version="1.1" xmlns="http://www.w3.org/2000/svg" width="800" height="500"><defs><clipPath id="XLPQHGKZPQmu"><path fill="none" stroke="none" d="M 0.5 0.5 L 800.5 0.5 L 800.5 500.5 L 0.5 500.5 L 0.5 0.5 Z M 58.5 27.5 L 770.5 27.5 L 770.5 455.5 L 58.5 455.5 L 58.5 27.5 Z" clip-rule="evenodd"/></clipPath><clipPath id="akXVomxTPvRM"><path fill="none" stroke="none" d="M 58.5 27.5 L 770.5 27.5 L 770.5 455.5 L 58.5 455.5 L 58.5 27.5 Z"/></clipPath><clipPath id="scyEZNTktzxJ"><path fill="none" stroke="none" d="M 58.5 27.5 L 770.5 27.5 L 770.5 455.5 L 58.5 455.5 L 58.5 27.5 Z"/></clipPath><clipPath id="GmZKJKFzGKvO"><path fill="none" stroke="none" d="M 58.5 27.5 L 770.5 27.5 L 770.5 455.5 L 58.5 455.5 L 58.5 27.5 Z"/></clipPath><clipPath id="EBHrgWFMeMng"><path fill="none" stroke="none" d="M 58.5 27.5 L 770.5 27.5 L 770.5 455.5 L 58.5 455.5 L 58.5 27.5 Z"/></clipPath><clipPath id="WNlphTKzqyEn"><path fill="none" stroke="none" d="M 58.5 27.5 L 770.5 27.5 L 770.5 455.5 L 58.5 455.5 L 58.5 27.5 Z"/></clipPath><clipPath id="OqkzmTezlKfo"><path fill="none" stroke="none" d="M 58.5 27.5 L 770.5 27.5 L 770.5 455.5 L 58.5 455.5 L 58.5 27.5 Z"/></clipPath></defs><path fill="#ffffff" stroke="none" paint-order="stroke" d="M 0.5 0.5 L 800.5 0.5 L 800.5 500.5 L 0.5 500.5 L 0.5 0.5 Z" fill-rule="nonzero" clip-path="url(#XLPQHGKZPQmu)"/><path fill="#ffffff" stroke="none" paint-order="stroke" d="M 58.5 27.5 L 770.5 27.5 L 770.5 455.5 L 58.5 455.5 L 58.5 27.5 Z"/><path fill="none" stroke="#e5e5e5" paint-order="fill" d="M 58.5 27.5 L 770.5 27.5 L 770.5 455.5 L 58.5 455.5 L 58.5 27.5 Z" stroke-linejoin="bevel" stroke-miterlimit="10"/><path fill="none" stroke="#e5e5e5" paint-order="fill" d="M 93.5 455.5 L 93.5 27.5 M 202.5 455.5 L 202.5 27.5 M 311.5 455.5 L 311.5 27.5 M 420.5 455.5 L 420.5 27.5 M 529.5 455.5 L 529.5 27.5 M 638.5 455.5 L 638.5 27.5 M 747.5 455.5 L 747.5 27.5" stroke-linejoin="bevel" stroke-miterlimit="10" clip-path="url(#akXVomxTPvRM)"/><path fill="none" stroke="#e5e5e5" paint-order="fill" d="M 58.5 411.5 L 770.5 411.5 M 58.5 337.5 L 770.5 337.5 M 58.5 262.5 L 770.5 262.5 M 58.5 188.5 L 770.5 188.5 M 58.5 114.5 L 770.5 114.5 M 58.5 39.5 L 770.5 39.5" stroke-linejoin="bevel" stroke-miterlimit="10" clip-path="url(#scyEZNTktzxJ)"/><path fill="rgb(0 255 255)" stroke="rgb(0 0 0)" paint-order="fill" d="M 466.5762939453125 371.62799072265625 L 471.2429606119792 364.62799072265625 L 466.5762939453125 357.62799072265625 L 461.9096272786458 364.62799072265625 Z" fill-rule="nonzero" clip-path="url(#GmZKJKFzGKvO)" stroke-linejoin="bevel" stroke-miterlimit="10"/><path fill="rgb(0 255 255)" stroke="rgb(0 0 0)" paint-order="fill" d="M 738.1363525390625 187.44361877441406 L 742.8030192057291 180.44361877441406 L 738.1363525390625 173.44361877441406 L 733.4696858723959 180.44361877441406 Z" fill-rule="nonzero" clip-path="url(#GmZKJKFzGKvO)" stroke-linejoin="bevel" stroke-miterlimit="10"/><path fill="rgb(0 255 255)" stroke="rgb(0 0 0)" paint-order="fill" d="M 329.70562744140625 312.6625671386719 L 334.37229410807294 305.6625671386719 L 329.70562744140625 298.6625671386719 L 325.03896077473956 305.6625671386719 Z" fill-rule="nonzero" clip-path="url(#GmZKJKFzGKvO)" stroke-linejoin="bevel" stroke-miterlimit="10"/><path fill="rgb(0 255 255)" stroke="rgb(0 0 0)" paint-order="fill" d="M 439.85650634765625 179.96449279785156 L 444.52317301432294 172.96449279785156 L 439.85650634765625 165.96449279785156 L 435.18983968098956 172.96449279785156 Z" fill-rule="nonzero" clip-path="url(#GmZKJKFzGKvO)" stroke-linejoin="bevel" stroke-miterlimit="10"/><path fill="rgb(0 255 255)" stroke="rgb(0 0 0)" paint-order="fill" d="M 720.6867065429688 53.95454406738281 L 725.3533732096354 46.95454406738281 L 720.6867065429688 39.95454406738281 L 716.0200398763021 46.95454406738281 Z" fill-rule="nonzero" clip-path="url(#GmZKJKFzGKvO)" stroke-linejoin="bevel" stroke-miterlimit="10"/><path fill="rgb(0 255 255)" stroke="rgb(0 0 0)" paint-order="fill" d="M 520.5610961914062 196.35289001464844 L 525.2277628580729 189.35289001464844 L 520.5610961914062 182.35289001464844 L 515.8944295247396 189.35289001464844 Z" fill-rule="nonzero" clip-path="url(#GmZKJKFzGKvO)" stroke-linejoin="bevel" stroke-miterlimit="10"/><path fill="rgb(0 255 255)" stroke="rgb(0 0 0)" paint-order="fill" d="M 90.86363983154297 443.0454406738281 L 95.53030649820964 436.0454406738281 L 90.86363983154297 429.0454406738281 L 86.1969731648763 436.0454406738281 Z" fill-rule="nonzero" clip-path="url(#GmZKJKFzGKvO)" stroke-linejoin="bevel" stroke-miterlimit="10"/><path fill="rgb(0 255 255)" stroke="rgb(0 0 0)" paint-order="fill" d="M 378.7827453613281 246.38088989257812 L 383.4494120279948 239.38088989257812 L 378.7827453613281 232.38088989257812 L 374.11607869466144 239.38088989257812 Z" fill-rule="nonzero" clip-path="url(#GmZKJKFzGKvO)" stroke-linejoin="bevel" stroke-miterlimit="10"/><path fill="none" stroke="black" paint-order="fill" d="M 58.5 455.5 L 770.5 455.5" stroke-linejoin="bevel" stroke-miterlimit="10"/><path fill="none" stroke="black" paint-order="fill" d="M 93.5 461.5 L 93.5 453.5 M 202.5 461.5 L 202.5 453.5 M 311.5 461.5 L 311.5 453.5 M 420.5 461.5 L 420.5 453.5 M 529.5 461.5 L 529.5 453.5 M 638.5 461.5 L 638.5 453.5 M 747.5 461.5 L 747.5 453.5" stroke-linejoin="bevel" stroke-miterlimit="10"/><path fill="none" stroke="black" paint-order="fill" d="M 71.5 459.5 L 71.5 455.5 M 93.5 459.5 L 93.5 455.5 M 114.5 459.5 L 114.5 455.5 M 136.5 459.5 L 136.5 455.5 M 158.5 459.5 L 158.5 455.5 M 180.5 459.5 L 180.5 455.5 M 202.5 459.5 L 202.5 455.5 M 223.5 459.5 L 223.5 455.5 M 245.5 459.5 L 245.5 455.5 M 267.5 459.5 L 267.5 455.5 M 289.5 459.5 L 289.5 455.5 M 311.5 459.5 L 311.5 455.5 M 332.5 459.5 L 332.5 455.5 M 354.5 459.5 L 354.5 455.5 M 376.5 459.5 L 376.5 455.5 M 398.5 459.5 L 398.5 455.5 M 420.5 459.5 L 420.5 455.5 M 442.5 459.5 L 442.5 455.5 M 463.5 459.5 L 463.5 455.5 M 485.5 459.5 L 485.5 455.5 M 507.5 459.5 L 507.5 455.5 M 529.5 459.5 L 529.5 455.5 M 551.5 459.5 L 551.5 455.5 M 572.5 459.5 L 572.5 455.5 M 594.5 459.5 L 594.5 455.5 M 616.5 459.5 L 616.5 455.5 M 638.5 459.5 L 638.5 455.5 M 660.5 459.5 L 660.5 455.5 M 681.5 459.5 L 681.5 455.5 M 703.5 459.5 L 703.5 455.5 M 725.5 459.5 L 725.5 455.5 M 747.5 459.5 L 747.5 455.5 M 769.5 459.5 L 769.5 455.5" stroke-linejoin="bevel" stroke-miterlimit="10"/><text fill="#444444" stroke="none" font-family="helvetica" font-size="11px" font-style="normal" font-weight="normal" text-decoration="normal" x="83.36833190917969" y="474" text-anchor="start" dominant-baseline="alphabetic" transform="matrix(1, 0, 0, 1, 0.5, 0.5)">220</text><text fill="none" stroke="rgb(0 0 0 / 0)" font-family="helvetica" font-size="11px" font-style="normal" font-weight="normal" text-decoration="normal" x="83.36833190917969" y="474" text-anchor="start" dominant-baseline="alphabetic" transform="matrix(1, 0, 0, 1, 0.5, 0.5)" stroke-linejoin="bevel" stroke-miterlimit="10">220</text><text fill="#444444" stroke="none" font-family="helvetica" font-size="11px" font-style="normal" font-weight="normal" text-decoration="normal" x="192.42860412597656" y="474" text-anchor="start" dominant-baseline="alphabetic" transform="matrix(1, 0, 0, 1, 0.5, 0.5)">240</text><text fill="none" stroke="rgb(0 0 0 / 0)" font-family="helvetica" font-size="11px" font-style="normal" font-weight="normal" text-decoration="normal" x="192.42860412597656" y="474" text-anchor="start" dominant-baseline="alphabetic" transform="matrix(1, 0, 0, 1, 0.5, 0.5)" stroke-linejoin="bevel" stroke-miterlimit="10">240</text><text fill="#444444" stroke="none" font-family="helvetica" font-size="11px" font-style="normal" font-weight="normal" text-decoration="normal" x="301.4888916015625" y="474" text-anchor="start" dominant-baseline="alphabetic" transform="matrix(1, 0, 0, 1, 0.5, 0.5)">260</text><text fill="none" stroke="rgb(0 0 0 / 0)" font-family="helvetica" font-size="11px" font-style="normal" font-weight="normal" text-decoration="normal" x="301.4888916015625" y="474" text-anchor="start" dominant-baseline="alphabetic" transform="matrix(1, 0, 0, 1, 0.5, 0.5)" stroke-linejoin="bevel" stroke-miterlimit="10">260</text><text fill="#444444" stroke="none" font-family="helvetica" font-size="11px" font-style="normal" font-weight="normal" text-decoration="normal" x="410.5491638183594" y="474" text-anchor="start" dominant-baseline="alphabetic" transform="matrix(1, 0, 0, 1, 0.5, 0.5)">280</text><text fill="none" stroke="rgb(0 0 0 / 0)" font-family="helvetica" font-size="11px" font-style="normal" font-weight="normal" text-decoration="normal" x="410.5491638183594" y="474" text-anchor="start" dominant-baseline="alphabetic" transform="matrix(1, 0, 0, 1, 0.5, 0.5)" stroke-linejoin="bevel" stroke-miterlimit="10">280</text><text fill="#444444" stroke="none" font-family="helvetica" font-size="11px" font-style="normal" font-weight="normal" text-decoration="normal" x="519.6094360351562" y="474" text-anchor="start" dominant-baseline="alphabetic" transform="matrix(1, 0, 0, 1, 0.5, 0.5)">300</text><text fill="none" stroke="rgb(0 0 0 / 0)" font-family="helvetica" font-size="11px" font-style="normal" font-weight="normal" text-decoration="normal" x="519.6094360351562" y="474" text-anchor="start" dominant-baseline="alphabetic" transform="matrix(1, 0, 0, 1, 0.5, 0.5)" stroke-linejoin="bevel" stroke-miterlimit="10">300</text><text fill="#444444" stroke="none" font-family="helvetica" font-size="11px" font-style="normal" font-weight="normal" text-decoration="normal" x="628.669677734375" y="474" text-anchor="start" dominant-baseline="alphabetic" transform="matrix(1, 0, 0, 1, 0.5, 0.5)">320</text><text fill="none" stroke="rgb(0 0 0 / 0)" font-family="helvetica" font-size="11px" font-style="normal" font-weight="normal" text-decoration="normal" x="628.669677734375" y="474" text-anchor="start" dominant-baseline="alphabetic" transform="matrix(1, 0, 0, 1, 0.5, 0.5)" stroke-linejoin="bevel" stroke-miterlimit="10">320</text><text fill="#444444" stroke="none" font-family="helvetica" font-size="11px" font-style="normal" font-weight="normal" text-decoration="normal" x="737.72998046875" y="474" text-anchor="start" dominant-baseline="alphabetic" transform="matrix(1, 0, 0, 1, 0.5, 0.5)">340</text><text fill="none" stroke="rgb(0 0 0 / 0)" font-family="helvetica" font-size="11px" font-style="normal" font-weight="normal" text-decoration="normal" x="737.72998046875" y="474" text-anchor="start" dominant-baseline="alphabetic" transform="matrix(1, 0, 0, 1, 0.5, 0.5)" stroke-linejoin="bevel" stroke-miterlimit="10">340</text><text fill="#444444" stroke="none" font-family="helvetica" font-size="13px" font-style="italic" font-weight="normal" text-decoration="normal" x="358.92138671875" y="494" text-anchor="start" dominant-baseline="alphabetic" transform="matrix(1, 0, 0, 1, 0.5, 0.5)">Mean Susc. x 10^6</text><text fill="none" stroke="rgb(0 0 0 / 0)" font-family="helvetica" font-size="13px" font-style="italic" font-weight="normal" text-decoration="normal" x="358.92138671875" y="494" text-anchor="start" dominant-baseline="alphabetic" transform="matrix(1, 0, 0, 1, 0.5, 0.5)" stroke-linejoin="bevel" stroke-miterlimit="10">Mean Susc. x 10^6</text><path fill="none" stroke="black" paint-order="fill" d="M 58.5 455.5 L 58.5 27.5" stroke-linejoin="bevel" stroke-miterlimit="10"/><path fill="none" stroke="black" paint-order="fill" d="M 52.5 411.5 L 60.5 411.5 M 52.5 337.5 L 60.5 337.5 M 52.5 262.5 L 60.5 262.5 M 52.5 188.5 L 60.5 188.5 M 52.5 114.5 L 60.5 114.5 M 52.5 39.5 L 60.5 39.5" stroke-linejoin="bevel" stroke-miterlimit="10"/><path fill="none" stroke="black" paint-order="fill" d="M 54.5 426.5 L 58.5 426.5 M 54.5 441.5 L 58.5 441.5 M 54.5 411.5 L 58.5 411.5 M 54.5 396.5 L 58.5 396.5 M 54.5 381.5 L 58.5 381.5 M 54.5 367.5 L 58.5 367.5 M 54.5 352.5 L 58.5 352.5 M 54.5 337.5 L 58.5 337.5 M 54.5 322.5 L 58.5 322.5 M 54.5 307.5 L 58.5 307.5 M 54.5 292.5 L 58.5 292.5 M 54.5 277.5 L 58.5 277.5 M 54.5 262.5 L 58.5 262.5 M 54.5 248.5 L 58.5 248.5 M 54.5 233.5 L 58.5 233.5 M 54.5 218.5 L 58.5 218.5 M 54.5 203.5 L 58.5 203.5 M 54.5 188.5 L 58.5 188.5 M 54.5 173.5 L 58.5 173.5 M 54.5 158.5 L 58.5 158.5 M 54.5 144.5 L 58.5 144.5 M 54.5 129.5 L 58.5 129.5 M 54.5 114.5 L 58.5 114.5 M 54.5 99.5 L 58.5 99.5 M 54.5 84.5 L 58.5 84.5 M 54.5 69.5 L 58.5 69.5 M 54.5 54.5 L 58.5 54.5 M 54.5 39.5 L 58.5 39.5" stroke-linejoin="bevel" stroke-miterlimit="10"/><text fill="#444444" stroke="none" font-family="helvetica" font-size="11px" font-style="normal" font-weight="normal" text-decoration="normal" x="25.5908203125" y="415.1435241699219" text-anchor="start" dominant-baseline="alphabetic" transform="matrix(1, 0, 0, 1, 0.5, 0.5)">1.32</text><text fill="none" stroke="rgb(0 0 0 / 0)" font-family="helvetica" font-size="11px" font-style="normal" font-weight="normal" text-decoration="normal" x="25.5908203125" y="415.1435241699219" text-anchor="start" dominant-baseline="alphabetic" transform="matrix(1, 0, 0, 1, 0.5, 0.5)" stroke-linejoin="bevel" stroke-miterlimit="10">1.32</text><text fill="#444444" stroke="none" font-family="helvetica" font-size="11px" font-style="normal" font-weight="normal" text-decoration="normal" x="25.5908203125" y="340.80841064453125" text-anchor="start" dominant-baseline="alphabetic" transform="matrix(1, 0, 0, 1, 0.5, 0.5)">1.34</text><text fill="none" stroke="rgb(0 0 0 / 0)" font-family="helvetica" font-size="11px" font-style="normal" font-weight="normal" text-decoration="normal" x="25.5908203125" y="340.80841064453125" text-anchor="start" dominant-baseline="alphabetic" transform="matrix(1, 0, 0, 1, 0.5, 0.5)" stroke-linejoin="bevel" stroke-miterlimit="10">1.34</text><text fill="#444444" stroke="none" font-family="helvetica" font-size="11px" font-style="normal" font-weight="normal" text-decoration="normal" x="25.5908203125" y="266.4732666015625" text-anchor="start" dominant-baseline="alphabetic" transform="matrix(1, 0, 0, 1, 0.5, 0.5)">1.36</text><text fill="none" stroke="rgb(0 0 0 / 0)" font-family="helvetica" font-size="11px" font-style="normal" font-weight="normal" text-decoration="normal" x="25.5908203125" y="266.4732666015625" text-anchor="start" dominant-baseline="alphabetic" transform="matrix(1, 0, 0, 1, 0.5, 0.5)" stroke-linejoin="bevel" stroke-miterlimit="10">1.36</text><text fill="#444444" stroke="none" font-family="helvetica" font-size="11px" font-style="normal" font-weight="normal" text-decoration="normal" x="25.5908203125" y="192.13812255859375" text-anchor="start" dominant-baseline="alphabetic" transform="matrix(1, 0, 0, 1, 0.5, 0.5)">1.38</text><text fill="none" stroke="rgb(0 0 0 / 0)" font-family="helvetica" font-size="11px" font-style="normal" font-weight="normal" text-decoration="normal" x="25.5908203125" y="192.13812255859375" text-anchor="start" dominant-baseline="alphabetic" transform="matrix(1, 0, 0, 1, 0.5, 0.5)" stroke-linejoin="bevel" stroke-miterlimit="10">1.38</text><text fill="#444444" stroke="none" font-family="helvetica" font-size="11px" font-style="normal" font-weight="normal" text-decoration="normal" x="31.70849609375" y="117.80298614501953" text-anchor="start" dominant-baseline="alphabetic" transform="matrix(1, 0, 0, 1, 0.5, 0.5)">1.4</text><text fill="none" stroke="rgb(0 0 0 / 0)" font-family="helvetica" font-size="11px" font-style="normal" font-weight="normal" text-decoration="normal" x="31.70849609375" y="117.80298614501953" text-anchor="start" dominant-baseline="alphabetic" transform="matrix(1, 0, 0, 1, 0.5, 0.5)" stroke-linejoin="bevel" stroke-miterlimit="10">1.4</text><text fill="#444444" stroke="none" font-family="helvetica" font-size="11px" font-style="normal" font-weight="normal" text-decoration="normal" x="25.5908203125" y="43.46784591674805" text-anchor="start" dominant-baseline="alphabetic" transform="matrix(1, 0, 0, 1, 0.5, 0.5)">1.42</text><text fill="none" stroke="rgb(0 0 0 / 0)" font-family="helvetica" font-size="11px" font-style="normal" font-weight="normal" text-decoration="normal" x="25.5908203125" y="43.46784591674805" text-anchor="start" dominant-baseline="alphabetic" transform="matrix(1, 0, 0, 1, 0.5, 0.5)" stroke-linejoin="bevel" stroke-miterlimit="10">1.42</text><text fill="#444444" stroke="none" font-family="helvetica" font-size="13px" font-style="italic" font-weight="normal" text-decoration="normal" x="13.25537109375" y="238" text-anchor="start" dominant-baseline="alphabetic" transform="matrix(6.123233995736766e-17, -1, 1, 6.123233995736766e-17, -222.9091796875, 259.0908203125)">P</text><text fill="none" stroke="rgb(0 0 0 / 0)" font-family="helvetica" font-size="13px" font-style="italic" font-weight="normal" text-decoration="normal" x="13.25537109375" y="238" text-anchor="start" dominant-baseline="alphabetic" transform="matrix(6.123233995736766e-17, -1, 1, 6.123233995736766e-17, -222.9091796875, 259.0908203125)" stroke-linejoin="bevel" stroke-miterlimit="10">P</text><text fill="#444444" stroke="none" font-family="helvetica" font-size="13px" font-style="normal" font-weight="bold" text-decoration="normal" x="0" y="12" text-anchor="start" dominant-baseline="alphabetic" transform="matrix(1, 0, 0, 1, 58.5, 7.5)">P vs Mean Susc.</text><text fill="none" stroke="rgb(0 0 0 / 0)" font-family="helvetica" font-size="13px" font-style="normal" font-weight="bold" text-decoration="normal" x="0" y="12" text-anchor="start" dominant-baseline="alphabetic" transform="matrix(1, 0, 0, 1, 58.5, 7.5)" stroke-miterlimit="10" stroke-dasharray="">P vs Mean Susc.</text></svg>