<svg version="1.1" xmlns="http://www.w3.org/2000/svg" width="800" height="500"><defs><clipPath id="XUfxTHrJUoxt"><path fill="none" stroke="none" d="M 0.5 0.5 L 800.5 0.5 L 800.5 500.5 L 0.5 500.5 L 0.5 0.5 Z M 52.5 27.5 L 770.5 27.5 L 770.5 455.5 L 52.5 455.5 L 52.5 27.5 Z" clip-rule="evenodd"/></clipPath><clipPath id="JikapkNfJQby"><path fill="none" stroke="none" d="M 52.5 27.5 L 770.5 27.5 L 770.5 455.5 L 52.5 455.5 L 52.5 27.5 Z"/></clipPath><clipPath id="DMpXnfyARFfA"><path fill="none" stroke="none" d="M 52.5 27.5 L 770.5 27.5 L 770.5 455.5 L 52.5 455.5 L 52.5 27.5 Z"/></clipPath><clipPath id="HEmxcIUMDuzq"><path fill="none" stroke="none" d="M 52.5 27.5 L 770.5 27.5 L 770.5 455.5 L 52.5 455.5 L 52.5 27.5 Z"/></clipPath><clipPath id="toqODDaNFCBD"><path fill="none" stroke="none" d="M 52.5 27.5 L 770.5 27.5 L 770.5 455.5 L 52.5 455.5 L 52.5 27.5 Z"/></clipPath><clipPath id="cdPyPZmTsNfz"><path fill="none" stroke="none" d="M 52.5 27.5 L 770.5 27.5 L 770.5 455.5 L 52.5 455.5 L 52.5 27.5 Z"/></clipPath><clipPath id="VKWauZfqTgaM"><path fill="none" stroke="none" d="M 52.5 27.5 L 770.5 27.5 L 770.5 455.5 L 52.5 455.5 L 52.5 27.5 Z"/></clipPath></defs><path fill="#ffffff" stroke="none" paint-order="stroke" d="M 0.5 0.5 L 800.5 0.5 L 800.5 500.5 L 0.5 500.5 L 0.5 0.5 Z" fill-rule="nonzero" clip-path="url(#XUfxTHrJUoxt)"/><path fill="#ffffff" stroke="none" paint-order="stroke" d="M 52.5 27.5 L 770.5 27.5 L 770.5 455.5 L 52.5 455.5 L 52.5 27.5 Z"/><path fill="none" stroke="#e5e5e5" paint-order="fill" d="M 52.5 27.5 L 770.5 27.5 L 770.5 455.5 L 52.5 455.5 L 52.5 27.5 Z" stroke-linejoin="bevel" stroke-miterlimit="10"/><path fill="none" stroke="#e5e5e5" paint-order="fill" d="M 87.5 455.5 L 87.5 27.5 M 197.5 455.5 L 197.5 27.5 M 307.5 455.5 L 307.5 27.5 M 417.5 455.5 L 417.5 27.5 M 527.5 455.5 L 527.5 27.5 M 637.5 455.5 L 637.5 27.5 M 747.5 455.5 L 747.5 27.5" stroke-linejoin="bevel" stroke-miterlimit="10" clip-path="url(#JikapkNfJQby)"/><path fill="none" stroke="#e5e5e5" paint-order="fill" d="M 52.5 436.5 L 770.5 436.5 M 52.5 371.5 L 770.5 371.5 M 52.5 306.5 L 770.5 306.5 M 52.5 241.5 L 770.5 241.5 M 52.5 176.5 L 770.5 176.5 M 52.5 111.5 L 770.5 111.5 M 52.5 46.5 L 770.5 46.5" stroke-linejoin="bevel" stroke-miterlimit="10" clip-path="url(#DMpXnfyARFfA)"/><path fill="rgb(128 0 128 / 0.8)" stroke="rgb(0 0 0 / 0.8)" paint-order="fill" d="M 85.13636016845703 306.3484802246094 L 193.9242401123047 306.3484802246094 L 193.9242401123047 436.0454406738281 L 85.13636016845703 436.0454406738281 L 85.13636016845703 306.3484802246094 Z" fill-rule="nonzero" clip-path="url(#HEmxcIUMDuzq)" stroke-linejoin="bevel" stroke-miterlimit="10"/><path fill="rgb(128 0 128 / 0.8)" stroke="rgb(0 0 0 / 0.8)" paint-order="fill" d="M 193.9242401123047 436.0454406738281 L 302.7121276855469 436.0454406738281 L 302.7121276855469 436.0454406738281 L 193.9242401123047 436.0454406738281 L 193.9242401123047 436.0454406738281 Z" fill-rule="nonzero" clip-path="url(#HEmxcIUMDuzq)" stroke-linejoin="bevel" stroke-miterlimit="10"/><path fill="rgb(128 0 128 / 0.8)" stroke="rgb(0 0 0 / 0.8)" paint-order="fill" d="M 302.7121276855469 176.65151977539062 L 411.5 176.65151977539062 L 411.5 436.0454406738281 L 302.7121276855469 436.0454406738281 L 302.7121276855469 176.65151977539062 Z" fill-rule="nonzero" clip-path="url(#HEmxcIUMDuzq)" stroke-linejoin="bevel" stroke-miterlimit="10"/><path fill="rgb(128 0 128 / 0.8)" stroke="rgb(0 0 0 / 0.8)" paint-order="fill" d="M 411.5 46.95454406738281 L 520.2879028320312 46.95454406738281 L 520.2879028320312 436.0454406738281 L 411.5 436.0454406738281 L 411.5 46.95454406738281 Z" fill-rule="nonzero" clip-path="url(#HEmxcIUMDuzq)" stroke-linejoin="bevel" stroke-miterlimit="10"/><path fill="rgb(128 0 128 / 0.8)" stroke="rgb(0 0 0 / 0.8)" paint-order="fill" d="M 520.2879028320312 436.0454406738281 L 629.0757446289062 436.0454406738281 L 629.0757446289062 436.0454406738281 L 520.2879028320312 436.0454406738281 L 520.2879028320312 436.0454406738281 Z" fill-rule="nonzero" clip-path="url(#HEmxcIUMDuzq)" stroke-linejoin="bevel" stroke-miterlimit="10"/><path fill="rgb(128 0 128 / 0.8)" stroke="rgb(0 0 0 / 0.8)" paint-order="fill" d="M 629.0757446289062 176.65151977539062 L 737.8636474609375 176.65151977539062 L 737.8636474609375 436.0454406738281 L 629.0757446289062 436.0454406738281 L 629.0757446289062 176.65151977539062 Z" fill-rule="nonzero" clip-path="url(#HEmxcIUMDuzq)" stroke-linejoin="bevel" stroke-miterlimit="10"/><path fill="none" stroke="black" paint-order="fill" d="M 52.5 455.5 L 770.5 455.5" stroke-linejoin="bevel" stroke-miterlimit="10"/><path fill="none" stroke="black" paint-order="fill" d="M 87.5 461.5 L 87.5 453.5 M 197.5 461.5 L 197.5 453.5 M 307.5 461.5 L 307.5 453.5 M 417.5 461.5 L 417.5 453.5 M 527.5 461.5 L 527.5 453.5 M 637.5 461.5 L 637.5 453.5 M 747.5 461.5 L 747.5 453.5" stroke-linejoin="bevel" stroke-miterlimit="10"/><path fill="none" stroke="black" paint-order="fill" d="M 65.5 459.5 L 65.5 455.5 M 87.5 459.5 L 87.5 455.5 M 109.5 459.5 L 109.5 455.5 M 131.5 459.5 L 131.5 455.5 M 153.5 459.5 L 153.5 455.5 M 175.5 459.5 L 175.5 455.5 M 197.5 459.5 L 197.5 455.5 M 219.5 459.5 L 219.5 455.5 M 241.5 459.5 L 241.5 455.5 M 263.5 459.5 L 263.5 455.5 M 285.5 459.5 L 285.5 455.5 M 307.5 459.5 L 307.5 455.5 M 329.5 459.5 L 329.5 455.5 M 351.5 459.5 L 351.5 455.5 M 373.5 459.5 L 373.5 455.5 M 395.5 459.5 L 395.5 455.5 M 417.5 459.5 L 417.5 455.5 M 439.5 459.5 L 439.5 455.5 M 461.5 459.5 L 461.5 455.5 M 483.5 459.5 L 483.5 455.5 M 505.5 459.5 L 505.5 455.5 M 527.5 459.5 L 527.5 455.5 M 549.5 459.5 L 549.5 455.5 M 571.5 459.5 L 571.5 455.5 M 593.5 459.5 L 593.5 455.5 M 615.5 459.5 L 615.5 455.5 M 637.5 459.5 L 637.5 455.5 M 659.5 459.5 L 659.5 455.5 M 681.5 459.5 L 681.5 455.5 M 703.5 459.5 L 703.5 455.5 M 725.5 459.5 L 725.5 455.5 M 747.5 459.5 L 747.5 455.5 M 769.5 459.5 L 769.5 455.5" stroke-linejoin="bevel" stroke-miterlimit="10"/><text fill="#444444" stroke="none" font-family="helvetica" font-size="11px" font-style="normal" font-weight="normal" text-decoration="normal" x="77.65943908691406" y="474" text-anchor="start" dominant-baseline="alphabetic" transform="matrix(1, 0, 0, 1, 0.5, 0.5)">220</text><text fill="none" stroke="rgb(0 0 0 / 0)" font-family="helvetica" font-size="11px" font-style="normal" font-weight="normal" text-decoration="normal" x="77.65943908691406" y="474" text-anchor="start" dominant-baseline="alphabetic" transform="matrix(1, 0, 0, 1, 0.5, 0.5)" stroke-linejoin="bevel" stroke-miterlimit="10">220</text><text fill="#444444" stroke="none" font-family="helvetica" font-size="11px" font-style="normal" font-weight="normal" text-decoration="normal" x="187.63876342773438" y="474" text-anchor="start" dominant-baseline="alphabetic" transform="matrix(1, 0, 0, 1, 0.5, 0.5)">240</text><text fill="none" stroke="rgb(0 0 0 / 0)" font-family="helvetica" font-size="11px" font-style="normal" font-weight="normal" text-decoration="normal" x="187.63876342773438" y="474" text-anchor="start" dominant-baseline="alphabetic" transform="matrix(1, 0, 0, 1, 0.5, 0.5)" stroke-linejoin="bevel" stroke-miterlimit="10">240</text><text fill="#444444" stroke="none" font-family="helvetica" font-size="11px" font-style="normal" font-weight="normal" text-decoration="normal" x="297.6180725097656" y="474" text-anchor="start" dominant-baseline="alphabetic" transform="matrix(1, 0, 0, 1, 0.5, 0.5)">260</text><text fill="none" stroke="rgb(0 0 0 / 0)" font-family="helvetica" font-size="11px" font-style="normal" font-weight="normal" text-decoration="normal" x="297.6180725097656" y="474" text-anchor="start" dominant-baseline="alphabetic" transform="matrix(1, 0, 0, 1, 0.5, 0.5)" stroke-linejoin="bevel" stroke-miterlimit="10">260</text><text fill="#444444" stroke="none" font-family="helvetica" font-size="11px" font-style="normal" font-weight="normal" text-decoration="normal" x="407.597412109375" y="474" text-anchor="start" dominant-baseline="alphabetic" transform="matrix(1, 0, 0, 1, 0.5, 0.5)">280</text><text fill="none" stroke="rgb(0 0 0 / 0)" font-family="helvetica" font-size="11px" font-style="normal" font-weight="normal" text-decoration="normal" x="407.597412109375" y="474" text-anchor="start" dominant-baseline="alphabetic" transform="matrix(1, 0, 0, 1, 0.5, 0.5)" stroke-linejoin="bevel" stroke-miterlimit="10">280</text><text fill="#444444" stroke="none" font-family="helvetica" font-size="11px" font-style="normal" font-weight="normal" text-decoration="normal" x="517.5767211914062" y="474" text-anchor="start" dominant-baseline="alphabetic" transform="matrix(1, 0, 0, 1, 0.5, 0.5)">300</text><text fill="none" stroke="rgb(0 0 0 / 0)" font-family="helvetica" font-size="11px" font-style="normal" font-weight="normal" text-decoration="normal" x="517.5767211914062" y="474" text-anchor="start" dominant-baseline="alphabetic" transform="matrix(1, 0, 0, 1, 0.5, 0.5)" stroke-linejoin="bevel" stroke-miterlimit="10">300</text><text fill="#444444" stroke="none" font-family="helvetica" font-size="11px" font-style="normal" font-weight="normal" text-decoration="normal" x="627.5560302734375" y="474" text-anchor="start" dominant-baseline="alphabetic" transform="matrix(1, 0, 0, 1, 0.5, 0.5)">320</text><text fill="none" stroke="rgb(0 0 0 / 0)" font-family="helvetica" font-size="11px" font-style="normal" font-weight="normal" text-decoration="normal" x="627.5560302734375" y="474" text-anchor="start" dominant-baseline="alphabetic" transform="matrix(1, 0, 0, 1, 0.5, 0.5)" stroke-linejoin="bevel" stroke-miterlimit="10">320</text><text fill="#444444" stroke="none" font-family="helvetica" font-size="11px" font-style="normal" font-weight="normal" text-decoration="normal" x="737.5353393554688" y="474" text-anchor="start" dominant-baseline="alphabetic" transform="matrix(1, 0, 0, 1, 0.5, 0.5)">340</text><text fill="none" stroke="rgb(0 0 0 / 0)" font-family="helvetica" font-size="11px" font-style="normal" font-weight="normal" text-decoration="normal" x="737.5353393554688" y="474" text-anchor="start" dominant-baseline="alphabetic" transform="matrix(1, 0, 0, 1, 0.5, 0.5)" stroke-linejoin="bevel" stroke-miterlimit="10">340</text><text fill="#444444" stroke="none" font-family="helvetica" font-size="13px" font-style="italic" font-weight="normal" text-decoration="normal" x="358.44775390625" y="494" text-anchor="start" dominant-baseline="alphabetic" transform="matrix(1, 0, 0, 1, 0.5, 0.5)">Mean Susc * 10^6</text><text fill="none" stroke="rgb(0 0 0 / 0)" font-family="helvetica" font-size="13px" font-style="italic" font-weight="normal" text-decoration="normal" x="358.44775390625" y="494" text-anchor="start" dominant-baseline="alphabetic" transform="matrix(1, 0, 0, 1, 0.5, 0.5)" stroke-linejoin="bevel" stroke-miterlimit="10">Mean Susc * 10^6</text><path fill="none" stroke="black" paint-order="fill" d="M 52.5 455.5 L 52.5 27.5" stroke-linejoin="bevel" stroke-miterlimit="10"/><path fill="none" stroke="black" paint-order="fill" d="M 46.5 436.5 L 54.5 436.5 M 46.5 371.5 L 54.5 371.5 M 46.5 306.5 L 54.5 306.5 M 46.5 241.5 L 54.5 241.5 M 46.5 176.5 L 54.5 176.5 M 46.5 111.5 L 54.5 111.5 M 46.5 46.5 L 54.5 46.5" stroke-linejoin="bevel" stroke-miterlimit="10"/><path fill="none" stroke="black" paint-order="fill" d="M 48.5 449.5 L 52.5 449.5 M 48.5 436.5 L 52.5 436.5 M 48.5 423.5 L 52.5 423.5 M 48.5 410.5 L 52.5 410.5 M 48.5 397.5 L 52.5 397.5 M 48.5 384.5 L 52.5 384.5 M 48.5 371.5 L 52.5 371.5 M 48.5 358.5 L 52.5 358.5 M 48.5 345.5 L 52.5 345.5 M 48.5 332.5 L 52.5 332.5 M 48.5 319.5 L 52.5 319.5 M 48.5 306.5 L 52.5 306.5 M 48.5 293.5 L 52.5 293.5 M 48.5 280.5 L 52.5 280.5 M 48.5 267.5 L 52.5 267.5 M 48.5 254.5 L 52.5 254.5 M 48.5 241.5 L 52.5 241.5 M 48.5 228.5 L 52.5 228.5 M 48.5 215.5 L 52.5 215.5 M 48.5 202.5 L 52.5 202.5 M 48.5 189.5 L 52.5 189.5 M 48.5 176.5 L 52.5 176.5 M 48.5 163.5 L 52.5 163.5 M 48.5 150.5 L 52.5 150.5 M 48.5 137.5 L 52.5 137.5 M 48.5 124.5 L 52.5 124.5 M 48.5 111.5 L 52.5 111.5 M 48.5 98.5 L 52.5 98.5 M 48.5 85.5 L 52.5 85.5 M 48.5 72.5 L 52.5 72.5 M 48.5 59.5 L 52.5 59.5 M 48.5 46.5 L 52.5 46.5 M 48.5 33.5 L 52.5 33.5" stroke-linejoin="bevel" stroke-miterlimit="10"/><text fill="#444444" stroke="none" font-family="helvetica" font-size="11px" font-style="normal" font-weight="normal" text-decoration="normal" x="34.88232421875" y="439.5454406738281" text-anchor="start" dominant-baseline="alphabetic" transform="matrix(1, 0, 0, 1, 0.5, 0.5)">0</text><text fill="none" stroke="rgb(0 0 0 / 0)" font-family="helvetica" font-size="11px" font-style="normal" font-weight="normal" text-decoration="normal" x="34.88232421875" y="439.5454406738281" text-anchor="start" dominant-baseline="alphabetic" transform="matrix(1, 0, 0, 1, 0.5, 0.5)" stroke-linejoin="bevel" stroke-miterlimit="10">0</text><text fill="#444444" stroke="none" font-family="helvetica" font-size="11px" font-style="normal" font-weight="normal" text-decoration="normal" x="25.70849609375" y="374.69696044921875" text-anchor="start" dominant-baseline="alphabetic" transform="matrix(1, 0, 0, 1, 0.5, 0.5)">0.5</text><text fill="none" stroke="rgb(0 0 0 / 0)" font-family="helvetica" font-size="11px" font-style="normal" font-weight="normal" text-decoration="normal" x="25.70849609375" y="374.69696044921875" text-anchor="start" dominant-baseline="alphabetic" transform="matrix(1, 0, 0, 1, 0.5, 0.5)" stroke-linejoin="bevel" stroke-miterlimit="10">0.5</text><text fill="#444444" stroke="none" font-family="helvetica" font-size="11px" font-style="normal" font-weight="normal" text-decoration="normal" x="34.88232421875" y="309.8484802246094" text-anchor="start" dominant-baseline="alphabetic" transform="matrix(1, 0, 0, 1, 0.5, 0.5)">1</text><text fill="none" stroke="rgb(0 0 0 / 0)" font-family="helvetica" font-size="11px" font-style="normal" font-weight="normal" text-decoration="normal" x="34.88232421875" y="309.8484802246094" text-anchor="start" dominant-baseline="alphabetic" transform="matrix(1, 0, 0, 1, 0.5, 0.5)" stroke-linejoin="bevel" stroke-miterlimit="10">1</text><text fill="#444444" stroke="none" font-family="helvetica" font-size="11px" font-style="normal" font-weight="normal" text-decoration="normal" x="25.70849609375" y="245" text-anchor="start" dominant-baseline="alphabetic" transform="matrix(1, 0, 0, 1, 0.5, 0.5)">1.5</text><text fill="none" stroke="rgb(0 0 0 / 0)" font-family="helvetica" font-size="11px" font-style="normal" font-weight="normal" text-decoration="normal" x="25.70849609375" y="245" text-anchor="start" dominant-baseline="alphabetic" transform="matrix(1, 0, 0, 1, 0.5, 0.5)" stroke-linejoin="bevel" stroke-miterlimit="10">1.5</text><text fill="#444444" stroke="none" font-family="helvetica" font-size="11px" font-style="normal" font-weight="normal" text-decoration="normal" x="34.88232421875" y="180.15151977539062" text-anchor="start" dominant-baseline="alphabetic" transform="matrix(1, 0, 0, 1, 0.5, 0.5)">2</text><text fill="none" stroke="rgb(0 0 0 / 0)" font-family="helvetica" font-size="11px" font-style="normal" font-weight="normal" text-decoration="normal" x="34.88232421875" y="180.15151977539062" text-anchor="start" dominant-baseline="alphabetic" transform="matrix(1, 0, 0, 1, 0.5, 0.5)" stroke-linejoin="bevel" stroke-miterlimit="10">2</text><text fill="#444444" stroke="none" font-family="helvetica" font-size="11px" font-style="normal" font-weight="normal" text-decoration="normal" x="25.70849609375" y="115.30303192138672" text-anchor="start" dominant-baseline="alphabetic" transform="matrix(1, 0, 0, 1, 0.5, 0.5)">2.5</text><text fill="none" stroke="rgb(0 0 0 / 0)" font-family="helvetica" font-size="11px" font-style="normal" font-weight="normal" text-decoration="normal" x="25.70849609375" y="115.30303192138672" text-anchor="start" dominant-baseline="alphabetic" transform="matrix(1, 0, 0, 1, 0.5, 0.5)" stroke-linejoin="bevel" stroke-miterlimit="10">2.5</text><text fill="#444444" stroke="none" font-family="helvetica" font-size="11px" font-style="normal" font-weight="normal" text-decoration="normal" x="34.88232421875" y="50.45454406738281" text-anchor="start" dominant-baseline="alphabetic" transform="matrix(1, 0, 0, 1, 0.5, 0.5)">3</text><text fill="none" stroke="rgb(0 0 0 / 0)" font-family="helvetica" font-size="11px" font-style="normal" font-weight="normal" text-decoration="normal" x="34.88232421875" y="50.45454406738281" text-anchor="start" dominant-baseline="alphabetic" transform="matrix(1, 0, 0, 1, 0.5, 0.5)" stroke-linejoin="bevel" stroke-miterlimit="10">3</text><text fill="#444444" stroke="none" font-family="helvetica" font-size="13px" font-style="italic" font-weight="normal" text-decoration="normal" x="13.014404296875" y="238" text-anchor="start" dominant-baseline="alphabetic" transform="matrix(6.123233995736766e-17, -1, 1, 6.123233995736766e-17, -222.79150390625, 259.20849609375)">N</text><text fill="none" stroke="rgb(0 0 0 / 0)" font-family="helvetica" font-size="13px" font-style="italic" font-weight="normal" text-decoration="normal" x="13.014404296875" y="238" text-anchor="start" dominant-baseline="alphabetic" transform="matrix(6.123233995736766e-17, -1, 1, 6.123233995736766e-17, -222.79150390625, 259.20849609375)" stroke-linejoin="bevel" stroke-miterlimit="10">N</text><text fill="#444444" stroke="none" font-family="helvetica" font-size="13px" font-style="normal" font-weight="bold" text-decoration="normal" x="0" y="12" text-anchor="start" dominant-baseline="alphabetic" transform="matrix(1, 0, 0, 1, 52.5, 7.5)">N vs Mean Susc.</text><text fill="none" stroke="rgb(0 0 0 / 0)" font-family="helvetica" font-size="13px" font-style="normal" font-weight="bold" text-decoration="normal" x="0" y="12" text-anchor="start" dominant-baseline="alphabetic" transform="matrix(1, 0, 0, 1, 52.5, 7.5)" stroke-miterlimit="10" stroke-dasharray="">N vs Mean Susc.</text></svg>